<svg xmlns="http://www.w3.org/2000/svg" xmlns:xlink="http://www.w3.org/1999/xlink" width="500" zoomAndPan="magnify" viewBox="35 164 305 42" height="500" preserveAspectRatio="xMidYMid meet" version="1.0"><defs><g/><clipPath id="af78fa8780"><path d="M 67 14 L 86.878906 14 L 86.878906 35 L 67 35 Z M 67 14 " clip-rule="nonzero"/></clipPath><clipPath id="f908547857"><rect x="0" width="87" y="0" height="49"/></clipPath><clipPath id="7176d23b3f"><rect x="0" width="146" y="0" height="49"/></clipPath><clipPath id="be34dd7636"><rect x="0" width="71" y="0" height="62"/></clipPath></defs><g transform="matrix(1, 0, 0, 1, 108, 163)"><g clip-path="url(#f908547857)"><g fill="#ffffff" fill-opacity="1"><g transform="translate(1.178813, 33.686794)"><g><path d="M 10.75 0.421875 C 8.894531 0.421875 7.125 0.210938 5.4375 -0.203125 C 3.75 -0.617188 2.332031 -1.210938 1.1875 -1.984375 L 3.109375 -6.140625 C 4.066406 -5.503906 5.195312 -5.003906 6.5 -4.640625 C 7.800781 -4.273438 9.15625 -4.09375 10.5625 -4.09375 C 12.144531 -4.09375 13.410156 -4.363281 14.359375 -4.90625 C 15.304688 -5.457031 15.78125 -6.222656 15.78125 -7.203125 L 15.78125 -7.234375 C 15.78125 -7.804688 15.585938 -8.289062 15.203125 -8.6875 C 14.816406 -9.082031 14.179688 -9.46875 13.296875 -9.84375 C 12.410156 -10.21875 11.191406 -10.640625 9.640625 -11.109375 C 7.753906 -11.679688 6.25 -12.304688 5.125 -12.984375 C 4.007812 -13.671875 3.210938 -14.503906 2.734375 -15.484375 C 2.253906 -16.472656 2.015625 -17.679688 2.015625 -19.109375 L 2.015625 -19.171875 C 2.015625 -20.628906 2.390625 -21.894531 3.140625 -22.96875 C 3.890625 -24.050781 4.96875 -24.894531 6.375 -25.5 C 7.78125 -26.101562 9.460938 -26.40625 11.421875 -26.40625 C 13.109375 -26.40625 14.742188 -26.207031 16.328125 -25.8125 C 17.910156 -25.425781 19.253906 -24.867188 20.359375 -24.140625 L 18.4375 -19.953125 C 17.5 -20.566406 16.414062 -21.050781 15.1875 -21.40625 C 13.957031 -21.757812 12.71875 -21.9375 11.46875 -21.9375 C 9.96875 -21.9375 8.859375 -21.675781 8.140625 -21.15625 C 7.429688 -20.644531 7.078125 -20.015625 7.078125 -19.265625 L 7.078125 -19.234375 C 7.078125 -18.335938 7.445312 -17.640625 8.1875 -17.140625 C 8.9375 -16.640625 10.1875 -16.113281 11.9375 -15.5625 C 14.132812 -14.875 15.882812 -14.175781 17.1875 -13.46875 C 18.488281 -12.769531 19.425781 -11.941406 20 -10.984375 C 20.582031 -10.023438 20.875 -8.804688 20.875 -7.328125 L 20.875 -7.265625 C 20.875 -4.835938 19.96875 -2.945312 18.15625 -1.59375 C 16.34375 -0.25 13.875 0.421875 10.75 0.421875 Z M 10.75 0.421875 "/></g></g></g><g fill="#ffffff" fill-opacity="1"><g transform="translate(22.280268, 33.686794)"><g><path d="M 11.265625 0.484375 C 9.265625 0.484375 7.515625 0.0703125 6.015625 -0.75 C 4.523438 -1.570312 3.363281 -2.71875 2.53125 -4.1875 C 1.695312 -5.664062 1.28125 -7.363281 1.28125 -9.28125 L 1.28125 -9.34375 C 1.28125 -11.269531 1.691406 -12.960938 2.515625 -14.421875 C 3.335938 -15.878906 4.5 -17.023438 6 -17.859375 C 7.507812 -18.691406 9.265625 -19.109375 11.265625 -19.109375 C 12.378906 -19.109375 13.5 -18.96875 14.625 -18.6875 C 15.757812 -18.414062 16.765625 -18.035156 17.640625 -17.546875 L 15.625 -13.765625 C 15 -14.109375 14.34375 -14.375 13.65625 -14.5625 C 12.976562 -14.757812 12.269531 -14.859375 11.53125 -14.859375 C 9.90625 -14.859375 8.644531 -14.335938 7.75 -13.296875 C 6.851562 -12.265625 6.40625 -10.945312 6.40625 -9.34375 L 6.40625 -9.28125 C 6.40625 -7.707031 6.851562 -6.390625 7.75 -5.328125 C 8.644531 -4.273438 9.90625 -3.75 11.53125 -3.75 C 12.269531 -3.75 12.972656 -3.835938 13.640625 -4.015625 C 14.316406 -4.203125 14.976562 -4.460938 15.625 -4.796875 L 17.609375 -1.03125 C 16.753906 -0.550781 15.757812 -0.179688 14.625 0.078125 C 13.5 0.347656 12.378906 0.484375 11.265625 0.484375 Z M 11.265625 0.484375 "/></g></g></g><g fill="#ffffff" fill-opacity="1"><g transform="translate(39.475222, 33.686794)"><g><path d="M 10.3125 -19.015625 C 12.019531 -19.015625 13.5 -18.785156 14.75 -18.328125 C 16.007812 -17.867188 16.988281 -17.109375 17.6875 -16.046875 C 18.382812 -14.992188 18.734375 -13.5625 18.734375 -11.75 L 18.734375 -0.390625 C 17.472656 -0.109375 16.082031 0.109375 14.5625 0.265625 C 13.050781 0.429688 11.664062 0.515625 10.40625 0.515625 C 8.53125 0.515625 6.90625 0.320312 5.53125 -0.0625 C 4.164062 -0.445312 3.113281 -1.078125 2.375 -1.953125 C 1.644531 -2.828125 1.28125 -3.976562 1.28125 -5.40625 L 1.28125 -5.46875 C 1.28125 -7.4375 2.015625 -8.878906 3.484375 -9.796875 C 4.960938 -10.710938 6.960938 -11.171875 9.484375 -11.171875 C 10.160156 -11.171875 10.832031 -11.15625 11.5 -11.125 C 12.175781 -11.09375 12.890625 -11.023438 13.640625 -10.921875 L 13.640625 -11.59375 C 13.640625 -12.738281 13.253906 -13.546875 12.484375 -14.015625 C 11.710938 -14.492188 10.625 -14.734375 9.21875 -14.734375 C 8.300781 -14.734375 7.242188 -14.617188 6.046875 -14.390625 C 4.859375 -14.171875 3.757812 -13.859375 2.75 -13.453125 L 3.875 -17.953125 C 4.34375 -18.148438 4.925781 -18.328125 5.625 -18.484375 C 6.332031 -18.648438 7.097656 -18.78125 7.921875 -18.875 C 8.742188 -18.96875 9.539062 -19.015625 10.3125 -19.015625 Z M 6.5 -5.734375 L 6.5 -5.671875 C 6.5 -4.878906 6.851562 -4.3125 7.5625 -3.96875 C 8.28125 -3.625 9.289062 -3.453125 10.59375 -3.453125 C 11.488281 -3.453125 12.503906 -3.539062 13.640625 -3.71875 L 13.640625 -7.6875 C 13.128906 -7.769531 12.59375 -7.832031 12.03125 -7.875 C 11.476562 -7.914062 11 -7.9375 10.59375 -7.9375 C 9.3125 -7.9375 8.304688 -7.769531 7.578125 -7.4375 C 6.859375 -7.113281 6.5 -6.546875 6.5 -5.734375 Z M 6.5 -5.734375 "/></g></g></g><g fill="#ffffff" fill-opacity="1"><g transform="translate(58.655448, 33.686794)"><g><path d="M 6.8125 0 L 1.734375 0 L 1.734375 -25.96875 L 6.8125 -25.96875 Z M 6.8125 0 "/></g></g></g><g clip-path="url(#af78fa8780)"><g fill="#ffffff" fill-opacity="1"><g transform="translate(65.988075, 33.686794)"><g><path d="M 20.328125 -8.578125 L 20.328125 -8.125 L 6.5625 -8.125 C 6.820312 -6.957031 7.394531 -5.972656 8.28125 -5.171875 C 9.164062 -4.367188 10.300781 -3.96875 11.6875 -3.96875 C 12.8125 -3.96875 13.847656 -4.144531 14.796875 -4.5 C 15.753906 -4.851562 16.5625 -5.265625 17.21875 -5.734375 L 19.4375 -1.796875 C 18.519531 -1.210938 17.410156 -0.6875 16.109375 -0.21875 C 14.804688 0.25 13.257812 0.484375 11.46875 0.484375 C 9.414062 0.484375 7.625 0.0703125 6.09375 -0.75 C 4.570312 -1.570312 3.390625 -2.71875 2.546875 -4.1875 C 1.703125 -5.664062 1.28125 -7.375 1.28125 -9.3125 L 1.28125 -9.34375 C 1.28125 -11.269531 1.675781 -12.960938 2.46875 -14.421875 C 3.257812 -15.878906 4.367188 -17.023438 5.796875 -17.859375 C 7.222656 -18.691406 8.910156 -19.109375 10.859375 -19.109375 C 12.816406 -19.109375 14.503906 -18.6875 15.921875 -17.84375 C 17.347656 -17 18.4375 -15.789062 19.1875 -14.21875 C 19.945312 -12.65625 20.328125 -10.773438 20.328125 -8.578125 Z M 10.828125 -14.984375 C 9.710938 -14.984375 8.785156 -14.628906 8.046875 -13.921875 C 7.316406 -13.222656 6.832031 -12.335938 6.59375 -11.265625 L 15.140625 -11.265625 C 14.953125 -12.335938 14.492188 -13.222656 13.765625 -13.921875 C 13.035156 -14.628906 12.054688 -14.984375 10.828125 -14.984375 Z M 10.828125 -14.984375 "/></g></g></g></g></g></g><g transform="matrix(1, 0, 0, 1, 195, 163)"><g clip-path="url(#7176d23b3f)"><g fill="#03fa6e" fill-opacity="1"><g transform="translate(0.336366, 33.091087)"><g><path d="M 10.75 0.421875 C 8.894531 0.421875 7.125 0.210938 5.4375 -0.203125 C 3.75 -0.617188 2.332031 -1.210938 1.1875 -1.984375 L 3.109375 -6.140625 C 4.066406 -5.503906 5.191406 -5.003906 6.484375 -4.640625 C 7.785156 -4.273438 9.144531 -4.09375 10.5625 -4.09375 C 12.132812 -4.09375 13.394531 -4.363281 14.34375 -4.90625 C 15.289062 -5.445312 15.765625 -6.210938 15.765625 -7.203125 L 15.765625 -7.234375 C 15.765625 -7.804688 15.570312 -8.289062 15.1875 -8.6875 C 14.800781 -9.082031 14.164062 -9.460938 13.28125 -9.828125 C 12.40625 -10.203125 11.1875 -10.625 9.625 -11.09375 C 7.75 -11.675781 6.25 -12.304688 5.125 -12.984375 C 4.007812 -13.671875 3.210938 -14.503906 2.734375 -15.484375 C 2.253906 -16.460938 2.015625 -17.664062 2.015625 -19.09375 L 2.015625 -19.15625 C 2.015625 -20.601562 2.382812 -21.863281 3.125 -22.9375 C 3.875 -24.019531 4.953125 -24.863281 6.359375 -25.46875 C 7.765625 -26.082031 9.453125 -26.390625 11.421875 -26.390625 C 13.097656 -26.390625 14.722656 -26.191406 16.296875 -25.796875 C 17.878906 -25.398438 19.226562 -24.835938 20.34375 -24.109375 L 18.421875 -19.921875 C 17.484375 -20.546875 16.398438 -21.03125 15.171875 -21.375 C 13.953125 -21.726562 12.710938 -21.90625 11.453125 -21.90625 C 9.960938 -21.90625 8.859375 -21.648438 8.140625 -21.140625 C 7.421875 -20.628906 7.0625 -20 7.0625 -19.25 L 7.0625 -19.21875 C 7.0625 -18.320312 7.4375 -17.625 8.1875 -17.125 C 8.9375 -16.625 10.1875 -16.097656 11.9375 -15.546875 C 14.125 -14.859375 15.867188 -14.160156 17.171875 -13.453125 C 18.472656 -12.753906 19.410156 -11.925781 19.984375 -10.96875 C 20.566406 -10.007812 20.859375 -8.796875 20.859375 -7.328125 L 20.859375 -7.265625 C 20.859375 -4.828125 19.953125 -2.9375 18.140625 -1.59375 C 16.328125 -0.25 13.863281 0.421875 10.75 0.421875 Z M 10.75 0.421875 "/></g></g></g><g fill="#03fa6e" fill-opacity="1"><g transform="translate(21.405478, 33.091087)"><g><path d="M 13.6875 -4.984375 L 13.6875 -18.171875 L 18.75 -18.171875 L 18.75 0.125 C 18.75 1.957031 18.363281 3.398438 17.59375 4.453125 C 16.820312 5.515625 15.800781 6.269531 14.53125 6.71875 C 13.269531 7.164062 11.878906 7.390625 10.359375 7.390625 C 9.617188 7.390625 8.859375 7.335938 8.078125 7.234375 C 7.296875 7.140625 6.578125 7.019531 5.921875 6.875 C 5.273438 6.726562 4.757812 6.566406 4.375 6.390625 L 3.265625 1.5625 C 3.859375 1.84375 4.546875 2.082031 5.328125 2.28125 C 6.109375 2.488281 6.882812 2.644531 7.65625 2.75 C 8.4375 2.851562 9.101562 2.90625 9.65625 2.90625 C 11.175781 2.90625 12.226562 2.644531 12.8125 2.125 C 13.394531 1.601562 13.6875 0.773438 13.6875 -0.359375 L 13.6875 -1.03125 C 13.09375 -0.957031 12.488281 -0.898438 11.875 -0.859375 C 11.269531 -0.816406 10.722656 -0.796875 10.234375 -0.796875 C 9.109375 -0.796875 8.03125 -0.90625 7 -1.125 C 5.976562 -1.351562 5.070312 -1.734375 4.28125 -2.265625 C 3.5 -2.804688 2.882812 -3.535156 2.4375 -4.453125 C 1.988281 -5.367188 1.765625 -6.519531 1.765625 -7.90625 L 1.765625 -18.359375 L 6.8125 -18.359375 L 6.8125 -7.9375 C 6.8125 -6.757812 7.117188 -5.9375 7.734375 -5.46875 C 8.359375 -5 9.253906 -4.765625 10.421875 -4.765625 C 10.910156 -4.765625 11.457031 -4.785156 12.0625 -4.828125 C 12.675781 -4.867188 13.21875 -4.921875 13.6875 -4.984375 Z M 13.6875 -4.984375 "/></g></g></g><g fill="#03fa6e" fill-opacity="1"><g transform="translate(40.684142, 33.091087)"><g><path d="M 9.375 0.421875 C 6.582031 0.421875 3.894531 -0.113281 1.3125 -1.1875 L 2.6875 -4.859375 C 3.75 -4.390625 4.820312 -4.046875 5.90625 -3.828125 C 7 -3.617188 8.003906 -3.515625 8.921875 -3.515625 C 10.015625 -3.515625 10.894531 -3.617188 11.5625 -3.828125 C 12.226562 -4.046875 12.5625 -4.488281 12.5625 -5.15625 C 12.5625 -5.644531 12.347656 -6.03125 11.921875 -6.3125 C 11.503906 -6.601562 10.625 -6.929688 9.28125 -7.296875 L 7.546875 -7.734375 C 5.628906 -8.253906 4.222656 -8.984375 3.328125 -9.921875 C 2.429688 -10.859375 1.984375 -12.082031 1.984375 -13.59375 C 1.984375 -15.300781 2.628906 -16.640625 3.921875 -17.609375 C 5.210938 -18.578125 7.050781 -19.0625 9.4375 -19.0625 C 10.820312 -19.0625 12.179688 -18.914062 13.515625 -18.625 C 14.847656 -18.34375 15.984375 -17.957031 16.921875 -17.46875 L 15.453125 -13.90625 C 14.640625 -14.332031 13.726562 -14.640625 12.71875 -14.828125 C 11.71875 -15.023438 10.828125 -15.125 10.046875 -15.125 C 9.128906 -15.125 8.40625 -15.019531 7.875 -14.8125 C 7.351562 -14.613281 7.09375 -14.257812 7.09375 -13.75 C 7.09375 -13.28125 7.332031 -12.90625 7.8125 -12.625 C 8.300781 -12.351562 9.097656 -12.054688 10.203125 -11.734375 L 11.515625 -11.390625 C 13.578125 -10.804688 15.097656 -10.046875 16.078125 -9.109375 C 17.066406 -8.171875 17.5625 -6.976562 17.5625 -5.53125 C 17.5625 -1.5625 14.832031 0.421875 9.375 0.421875 Z M 9.375 0.421875 "/></g></g></g><g fill="#03fa6e" fill-opacity="1"><g transform="translate(58.300255, 33.091087)"><g><path d="M 15.765625 0 L 9.953125 0 C 7.753906 0 6.207031 -0.492188 5.3125 -1.484375 C 4.414062 -2.472656 3.96875 -3.972656 3.96875 -5.984375 L 3.96875 -13.6875 L 0.734375 -13.6875 L 0.734375 -18.359375 L 3.96875 -18.359375 L 3.96875 -23.984375 L 9.046875 -23.984375 L 9.046875 -18.359375 L 15.734375 -18.359375 L 15.734375 -13.6875 L 9.046875 -13.6875 L 9.046875 -7.578125 C 9.046875 -6.554688 9.300781 -5.820312 9.8125 -5.375 C 10.332031 -4.925781 11.132812 -4.703125 12.21875 -4.703125 L 15.765625 -4.703125 Z M 15.765625 0 "/></g></g></g><g fill="#03fa6e" fill-opacity="1"><g transform="translate(74.189868, 33.091087)"><g><path d="M 20.3125 -8.578125 L 20.3125 -8.125 L 6.5625 -8.125 C 6.8125 -6.945312 7.378906 -5.957031 8.265625 -5.15625 C 9.148438 -4.363281 10.285156 -3.96875 11.671875 -3.96875 C 12.804688 -3.96875 13.847656 -4.140625 14.796875 -4.484375 C 15.742188 -4.835938 16.546875 -5.25 17.203125 -5.71875 L 19.421875 -1.796875 C 18.503906 -1.210938 17.394531 -0.6875 16.09375 -0.21875 C 14.789062 0.25 13.242188 0.484375 11.453125 0.484375 C 9.398438 0.484375 7.613281 0.0703125 6.09375 -0.75 C 4.570312 -1.570312 3.390625 -2.71875 2.546875 -4.1875 C 1.703125 -5.65625 1.28125 -7.363281 1.28125 -9.3125 L 1.28125 -9.34375 C 1.28125 -11.257812 1.671875 -12.945312 2.453125 -14.40625 C 3.242188 -15.863281 4.351562 -17.007812 5.78125 -17.84375 C 7.21875 -18.675781 8.90625 -19.09375 10.84375 -19.09375 C 12.800781 -19.09375 14.488281 -18.671875 15.90625 -17.828125 C 17.332031 -16.984375 18.421875 -15.773438 19.171875 -14.203125 C 19.929688 -12.640625 20.3125 -10.765625 20.3125 -8.578125 Z M 10.8125 -14.96875 C 9.695312 -14.96875 8.769531 -14.613281 8.03125 -13.90625 C 7.300781 -13.207031 6.820312 -12.328125 6.59375 -11.265625 L 15.125 -11.265625 C 14.9375 -12.328125 14.476562 -13.207031 13.75 -13.90625 C 13.03125 -14.613281 12.050781 -14.96875 10.8125 -14.96875 Z M 10.8125 -14.96875 "/></g></g></g><g fill="#03fa6e" fill-opacity="1"><g transform="translate(94.587567, 33.091087)"><g><path d="M 6.8125 0 L 1.734375 0 L 1.734375 -18.171875 C 2.773438 -18.359375 3.8125 -18.519531 4.84375 -18.65625 C 5.875 -18.800781 6.820312 -18.914062 7.6875 -19 C 8.550781 -19.082031 9.25 -19.125 9.78125 -19.125 C 10.957031 -19.125 12.03125 -18.9375 13 -18.5625 C 13.96875 -18.1875 14.742188 -17.550781 15.328125 -16.65625 C 15.984375 -17.53125 16.832031 -18.160156 17.875 -18.546875 C 18.925781 -18.929688 20.109375 -19.125 21.421875 -19.125 C 23.023438 -19.125 24.394531 -18.894531 25.53125 -18.4375 C 26.675781 -17.976562 27.554688 -17.234375 28.171875 -16.203125 C 28.796875 -15.171875 29.109375 -13.769531 29.109375 -12 L 29.109375 0 L 24.015625 0 L 24.015625 -11.421875 C 24.015625 -12.378906 23.816406 -13.144531 23.421875 -13.71875 C 23.035156 -14.289062 22.210938 -14.578125 20.953125 -14.578125 C 19.710938 -14.578125 18.890625 -14.289062 18.484375 -13.71875 C 18.078125 -13.144531 17.875 -12.378906 17.875 -11.421875 L 17.875 0 L 12.828125 0 L 12.828125 -11.421875 C 12.828125 -12.585938 12.53125 -13.40625 11.9375 -13.875 C 11.351562 -14.34375 10.5625 -14.578125 9.5625 -14.578125 C 9.15625 -14.578125 8.722656 -14.550781 8.265625 -14.5 C 7.804688 -14.445312 7.320312 -14.367188 6.8125 -14.265625 Z M 6.8125 0 "/></g></g></g><g fill="#03fa6e" fill-opacity="1"><g transform="translate(124.193282, 33.091087)"><g><path d="M 9.375 0.421875 C 6.582031 0.421875 3.894531 -0.113281 1.3125 -1.1875 L 2.6875 -4.859375 C 3.75 -4.390625 4.820312 -4.046875 5.90625 -3.828125 C 7 -3.617188 8.003906 -3.515625 8.921875 -3.515625 C 10.015625 -3.515625 10.894531 -3.617188 11.5625 -3.828125 C 12.226562 -4.046875 12.5625 -4.488281 12.5625 -5.15625 C 12.5625 -5.644531 12.347656 -6.03125 11.921875 -6.3125 C 11.503906 -6.601562 10.625 -6.929688 9.28125 -7.296875 L 7.546875 -7.734375 C 5.628906 -8.253906 4.222656 -8.984375 3.328125 -9.921875 C 2.429688 -10.859375 1.984375 -12.082031 1.984375 -13.59375 C 1.984375 -15.300781 2.628906 -16.640625 3.921875 -17.609375 C 5.210938 -18.578125 7.050781 -19.0625 9.4375 -19.0625 C 10.820312 -19.0625 12.179688 -18.914062 13.515625 -18.625 C 14.847656 -18.34375 15.984375 -17.957031 16.921875 -17.46875 L 15.453125 -13.90625 C 14.640625 -14.332031 13.726562 -14.640625 12.71875 -14.828125 C 11.71875 -15.023438 10.828125 -15.125 10.046875 -15.125 C 9.128906 -15.125 8.40625 -15.019531 7.875 -14.8125 C 7.351562 -14.613281 7.09375 -14.257812 7.09375 -13.75 C 7.09375 -13.28125 7.332031 -12.90625 7.8125 -12.625 C 8.300781 -12.351562 9.097656 -12.054688 10.203125 -11.734375 L 11.515625 -11.390625 C 13.578125 -10.804688 15.097656 -10.046875 16.078125 -9.109375 C 17.066406 -8.171875 17.5625 -6.976562 17.5625 -5.53125 C 17.5625 -1.5625 14.832031 0.421875 9.375 0.421875 Z M 9.375 0.421875 "/></g></g></g></g></g><g transform="matrix(1, 0, 0, 1, 37, 152)"><g clip-path="url(#be34dd7636)"><g fill="#03fa6e" fill-opacity="1"><g transform="translate(0.500002, 48.393579)"><g><path d="M 23.640625 -4.4375 L 1.921875 -14.015625 L 1.921875 -17.140625 L 23.640625 -27.984375 L 23.640625 -22.734375 L 8.6875 -15.8125 L 23.640625 -9.671875 Z M 23.640625 -4.4375 "/></g></g></g><g fill="#03fa6e" fill-opacity="1"><g transform="translate(26.05524, 48.393579)"><g><path d="M 18.28125 -31.96875 L 6.359375 0 L 0.3125 0 L 12.21875 -31.96875 Z M 18.28125 -31.96875 "/></g></g></g><g fill="#03fa6e" fill-opacity="1"><g transform="translate(44.549447, 48.393579)"><g><path d="M 1.921875 -9.671875 L 16.875 -15.8125 L 1.921875 -22.734375 L 1.921875 -27.984375 L 23.640625 -17.140625 L 23.640625 -14.015625 L 1.921875 -4.4375 Z M 1.921875 -9.671875 "/></g></g></g></g></g></svg>